<svg width="1770" height="496" viewBox="0 0 1770 496" fill="none" xmlns="http://www.w3.org/2000/svg">
<path d="M498 496.008H0V0H498V496.008ZM372.006 253.979C310.122 253.979 259.956 304.147 259.956 366.03C259.956 427.914 310.122 478.08 372.006 478.08C433.889 478.08 484.055 427.914 484.056 366.03C484.056 304.147 433.889 253.98 372.006 253.979ZM125.994 13.9443C64.1106 13.9443 13.9434 64.1106 13.9434 125.994C13.9435 187.878 64.1107 238.044 125.994 238.044C187.877 238.044 238.044 187.877 238.044 125.994C238.044 64.1108 187.877 13.9445 125.994 13.9443ZM372.006 13.9443C310.122 13.9443 259.956 64.1106 259.956 125.994C259.956 187.878 310.122 238.044 372.006 238.044C433.889 238.044 484.056 187.878 484.056 125.994C484.056 64.1107 433.889 13.9444 372.006 13.9443Z" fill="#FFAB00"/>
<path d="M836.861 88.7039V407.304H732.06V283.104H647.528V407.304H542V88.7039H647.528V203.454H732.06V88.7039H836.861Z" fill="#212624"/>
<path d="M980.836 177.371V199.913H1147.72V291.586H980.836V315.13H1147.72V407.304H852.86V88.7039H1147.72V177.371H980.836Z" fill="#212624"/>
<path d="M1288.52 326.504H1458.58V407.304H1163.72V88.7039H1288.52V326.504Z" fill="#212624"/>
<path d="M1769.44 88.7039V407.304H1692.87V322.504L1655.1 407.304H1589.27L1551.5 322.504V407.304H1474.58V88.7039H1551.5L1622.88 279.954L1692.87 88.7039H1769.44Z" fill="#212624"/>
</svg>
